<?xml version="1.0" standalone="no"?>
<!DOCTYPE svg PUBLIC "-//W3C//DTD SVG 20010904//EN"
 "http://www.w3.org/TR/2001/REC-SVG-20010904/DTD/svg10.dtd">
<svg version="1.0" xmlns="http://www.w3.org/2000/svg"
 width="200.000000pt" height="200.000000pt" viewBox="0 0 200.000000 200.000000"
 preserveAspectRatio="xMidYMid meet">

<g transform="translate(0.000000,200.000000) scale(0.100000,-0.100000)"
fill="#000000" stroke="none">
<path d="M980 1990 c-11 -7 -5 -10 23 -10 20 0 37 5 37 10 0 13 -40 13 -60 0z"/>
<path d="M1361 1962 c-34 -66 -110 -151 -210 -234 -102 -84 -298 -221 -368
-257 -24 -12 -43 -24 -43 -26 0 -10 107 49 195 108 201 134 355 268 413 361
34 54 33 55 56 -44 l16 -65 -43 -38 c-174 -159 -392 -311 -602 -419 -170 -88
-187 -102 -33 -29 56 28 104 48 106 47 1 -2 -29 -20 -68 -40 -38 -20 -70 -39
-70 -42 0 -3 46 19 103 49 56 31 101 60 100 66 -2 6 3 8 11 5 15 -6 227 135
373 247 56 44 103 79 105 79 5 0 3 -119 -2 -123 -12 -11 -163 -109 -235 -152
-44 -27 -159 -89 -255 -138 -96 -49 -164 -86 -150 -82 22 5 23 4 7 -5 -10 -7
-25 -9 -33 -6 -8 3 -14 1 -14 -5 0 -6 -4 -7 -10 -4 -5 3 -16 2 -22 -2 -10 -6
-12 -31 -7 -93 l5 -85 2 75 2 75 53 20 c28 11 55 21 59 23 4 2 9 -30 11 -70
l3 -73 2 87 2 88 50 25 c27 14 52 25 55 25 3 0 5 -24 6 -52 1 -83 17 -106 18
-26 1 65 2 66 37 87 19 12 39 21 44 21 5 0 11 -33 13 -72 3 -72 3 -72 5 18 l2
90 38 19 c20 11 40 21 45 23 4 2 8 -38 9 -90 l2 -93 3 85 4 85 49 28 50 28 1
-43 c0 -24 4 -63 8 -88 8 -40 9 -35 11 45 1 50 2 93 1 98 0 4 4 7 11 7 6 0 9
3 6 6 -3 3 -30 -6 -60 -20 -29 -15 -45 -21 -34 -14 10 7 65 44 123 81 l104 69
-1 86 c-1 48 1 95 5 105 7 16 -31 207 -41 207 -2 0 -12 -17 -23 -38z m49 -196
c0 -2 -24 -23 -52 -46 l-53 -42 48 46 c46 43 57 51 57 42z m-110 -90 c0 -2 -8
-10 -17 -17 -16 -13 -17 -12 -4 4 13 16 21 21 21 13z m-414 -291 c-11 -8 -25
-15 -30 -15 -6 1 0 7 14 15 32 19 40 18 16 0z"/>
<path d="M1623 1976 c14 -21 14 -30 -2 -92 l-17 -69 -50 -6 -49 -6 55 1 55 1
19 73 c16 62 17 76 6 97 -7 14 -18 25 -23 25 -5 0 -2 -11 6 -24z"/>
<path d="M1080 1980 c0 -5 -9 -10 -19 -10 -11 0 -22 -3 -24 -7 -3 -5 13 -8 34
-8 28 -1 38 3 35 11 -3 7 0 15 7 18 7 2 2 5 -10 5 -13 1 -23 -3 -23 -9z"/>
<path d="M781 1937 c-58 -30 -75 -29 -46 3 15 17 16 20 3 20 -9 0 -18 -10 -22
-23 -5 -21 -45 -50 -71 -52 -5 0 -17 -4 -25 -9 -12 -7 -13 -6 -2 5 23 25 12
29 -25 9 -21 -11 -41 -20 -45 -20 -14 0 -128 -84 -128 -96 0 -15 -41 -67 -48
-60 -3 3 -16 -10 -29 -29 -13 -20 -28 -33 -34 -30 -5 4 -13 -4 -18 -17 -6 -13
-10 -16 -10 -8 -1 8 -10 -4 -22 -27 -21 -44 -34 -53 -41 -31 -5 15 -54 -36
-64 -67 -4 -11 -11 -23 -16 -26 -7 -4 -6 -9 0 -13 6 -3 15 9 22 28 11 34 36
63 45 54 7 -6 -44 -98 -54 -98 -13 0 -44 -79 -43 -110 0 -17 -4 -30 -9 -30 -5
0 -9 4 -9 8 0 5 -7 9 -15 9 -19 0 -19 -3 0 -35 14 -24 14 -32 1 -72 l-15 -45
3 45 c2 25 1 36 -1 25 -3 -11 -9 -24 -14 -29 -5 -6 -9 -21 -9 -34 0 -18 4 -23
16 -18 12 5 15 2 10 -10 -3 -8 -6 -20 -6 -25 0 -4 -6 -6 -13 -3 -10 4 -12 -3
-9 -26 5 -36 9 -37 23 -7 8 18 8 15 3 -13 -10 -48 -10 -120 -1 -152 6 -21 4
-28 -7 -28 -8 0 -17 6 -19 13 -3 6 -6 -1 -6 -18 -1 -23 -4 -27 -11 -15 -11 18
-14 83 -2 77 4 -3 6 25 5 61 -2 81 -2 82 -13 57 -5 -11 -9 -55 -9 -98 -1 -57
4 -86 18 -112 13 -25 18 -50 15 -86 -2 -34 2 -58 12 -74 8 -12 14 -27 13 -31
-3 -21 2 -41 16 -60 13 -17 14 -16 8 21 -4 22 -15 54 -25 71 -13 23 -16 34 -8
39 16 10 24 -1 53 -72 16 -41 21 -65 14 -72 -7 -7 -6 -20 3 -40 6 -16 9 -34 6
-40 -8 -12 23 -43 35 -35 11 6 49 -23 49 -38 0 -5 -14 -1 -31 7 -17 9 -33 15
-35 13 -7 -7 48 -59 72 -68 17 -7 22 -15 18 -27 -5 -14 -4 -15 4 -4 9 12 13
12 26 2 9 -8 16 -18 16 -23 0 -5 19 -27 43 -50 25 -25 37 -42 30 -45 -10 -4
-9 -11 2 -34 19 -36 29 -38 21 -4 -4 14 -4 25 0 25 8 0 98 -64 102 -72 2 -5
10 -8 17 -8 8 0 25 -11 39 -25 14 -14 34 -25 45 -25 22 0 129 -38 149 -54 29
-22 126 -47 158 -41 20 3 35 1 39 -6 5 -8 39 -9 119 -4 61 5 126 9 144 9 18 1
36 6 40 12 6 9 65 34 80 34 3 0 -3 -7 -14 -15 -10 -8 16 1 58 20 42 19 83 35
90 35 7 0 24 9 38 20 14 11 30 20 37 20 7 0 16 6 20 14 4 7 22 20 39 29 17 9
53 36 80 61 36 33 46 48 36 54 -7 5 -10 17 -7 28 6 19 6 19 -7 0 -20 -30 -77
-79 -96 -83 -6 -2 -35 -21 -64 -43 -29 -22 -58 -40 -64 -40 -17 0 -34 47 -50
136 -13 77 -13 78 -8 16 3 -34 11 -82 18 -106 l13 -44 -38 -15 c-36 -14 -40
-14 -49 3 -10 18 -37 214 -43 310 l-3 55 -2 -60 c-2 -55 8 -166 24 -273 l6
-42 -79 0 -79 0 3 178 c2 97 0 256 -5 352 l-9 175 -3 -342 c-2 -189 -4 -351
-4 -360 -1 -16 12 -19 94 -23 59 -3 86 -8 70 -12 -104 -28 -177 -40 -215 -35
-25 4 -47 2 -50 -3 -9 -14 -75 -12 -81 2 -2 8 -27 14 -62 15 -31 1 -77 9 -102
17 l-45 15 64 0 c54 1 62 3 57 17 -13 33 -36 192 -45 309 l-10 120 5 -129 c4
-126 17 -247 30 -280 5 -14 -3 -16 -64 -16 -39 0 -74 4 -77 10 -3 5 -19 7 -34
4 -24 -5 -29 -2 -34 18 -4 13 -2 40 3 59 14 53 30 233 28 323 -1 44 -3 61 -5
36 -9 -142 -25 -296 -32 -307 -5 -9 -21 0 -57 32 -41 35 -61 45 -103 51 -51 7
-51 6 -43 -17 7 -18 24 -28 68 -41 33 -10 69 -23 81 -30 23 -11 32 -38 13 -38
-5 0 -10 4 -10 10 0 9 -51 40 -67 40 -14 0 59 -60 73 -60 7 0 16 5 19 10 3 6
11 10 16 10 6 0 7 -6 2 -12 -4 -7 -6 -21 -5 -31 3 -17 1 -17 -25 -4 -15 8 -40
17 -55 21 -16 3 -28 11 -28 16 0 6 -6 10 -12 10 -7 0 -22 14 -33 30 -11 16
-24 30 -29 30 -14 0 -86 78 -74 82 5 2 0 15 -12 28 -21 25 -21 25 -15 3 4 -13
4 -23 1 -23 -6 0 -86 133 -86 143 0 4 15 7 33 7 25 0 36 -6 49 -31 10 -16 13
-27 7 -23 -7 4 -10 -1 -7 -12 2 -11 10 -19 18 -19 19 0 70 -45 70 -62 0 -7 7
-13 15 -13 19 0 8 25 -24 54 -11 10 -32 38 -46 61 -22 38 -48 61 -67 57 -12
-3 -71 59 -63 66 4 4 10 1 12 -5 7 -20 23 -15 23 7 0 11 -7 20 -15 20 -8 0
-15 8 -16 18 0 14 -2 14 -9 -3 -8 -19 -9 -18 -11 5 -1 14 -1 36 0 48 1 13 -3
30 -9 37 -15 18 -34 145 -32 212 1 29 -3 55 -8 58 -6 3 -10 -4 -11 -17 0 -22
-1 -22 -9 -3 -12 28 -12 67 0 60 5 -3 10 3 10 14 0 24 16 36 23 19 3 -7 6 -3
6 10 1 12 -6 25 -14 28 -23 9 -18 27 15 64 17 20 33 50 37 72 3 21 10 41 14
44 5 3 9 14 9 25 0 10 4 27 10 37 5 9 14 29 20 45 5 15 15 27 22 27 7 0 25 28
41 61 15 33 31 57 37 54 5 -3 27 19 49 49 47 64 94 100 119 92 11 -4 32 4 52
19 19 14 40 25 47 25 7 0 20 11 29 25 12 19 22 23 39 19 16 -4 30 1 44 15 12
12 30 21 40 21 11 0 23 5 26 10 4 6 15 8 26 5 10 -4 19 -2 19 3 0 5 19 13 43
18 23 5 40 14 38 19 -3 6 8 13 25 16 l29 7 -27 1 c-15 0 -29 -3 -32 -8 -5 -7
-84 -23 -126 -25 -8 -1 -21 -5 -28 -10 -7 -4 -16 -6 -19 -3 -8 8 67 43 107 51
19 3 42 11 50 16 13 9 12 12 -5 22 -35 21 -96 15 -154 -15z m-214 -173 c4 -12
-40 -35 -77 -41 -33 -5 -43 -18 -65 -78 -15 -40 -20 -46 -25 -30 -10 27 4 51
68 113 53 51 90 64 99 36z m-227 -170 c0 -3 -9 -16 -19 -28 -75 -82 -84 -96
-61 -96 16 0 12 -30 -5 -36 -8 -4 -15 -13 -15 -21 0 -8 -7 -28 -16 -45 -11
-22 -18 -27 -24 -18 -6 9 -11 7 -19 -8 -16 -30 -14 -51 3 -29 19 25 27 21 20
-10 -7 -29 -23 -45 -35 -37 -4 2 -13 -22 -19 -53 -13 -62 -26 -93 -39 -93 -13
0 10 133 31 180 12 25 28 61 36 80 13 31 16 33 23 15 8 -22 11 -16 13 30 2 35
6 42 65 118 38 51 61 69 61 51z m-120 -333 c0 -10 -9 -21 -20 -24 -20 -5 -19
3 5 30 14 16 15 16 15 -6z m-73 -163 c-3 -8 -6 -5 -6 6 -1 11 2 17 5 13 3 -3
4 -12 1 -19z m-2 -133 c6 -55 2 -75 -16 -75 -6 0 -8 21 -5 50 2 28 0 50 -5 50
-5 0 -9 9 -9 20 0 12 5 17 14 14 8 -3 17 -28 21 -59z m9 -101 c4 -9 4 -19 2
-21 -8 -8 -26 8 -26 23 0 19 16 18 24 -2z m-11 -125 c-7 -24 -8 -22 -17 15 -6
25 -5 28 7 17 8 -6 13 -21 10 -32z m67 -91 c0 -6 -7 -5 -15 2 -8 7 -15 17 -15
22 0 6 7 5 15 -2 8 -7 15 -17 15 -22z m80 -192 c0 -5 8 -15 18 -22 16 -13 16
-14 -1 -8 -10 4 -27 24 -37 45 -26 49 -25 62 0 24 11 -16 20 -34 20 -39z"/>
<path d="M1133 1963 c10 -9 57 -10 57 -1 0 4 -14 8 -32 8 -17 0 -28 -3 -25 -7z"/>
<path d="M665 1920 c-3 -6 1 -7 9 -4 18 7 21 14 7 14 -6 0 -13 -4 -16 -10z"/>
<path d="M1020 1890 c-9 -6 -10 -10 -3 -10 6 0 15 5 18 10 8 12 4 12 -15 0z"/>
<path d="M1445 1765 c6 -2 27 -6 48 -10 l37 -6 0 -69 0 -69 -42 -4 c-41 -3
-41 -4 10 -5 l52 -2 0 79 c0 88 -2 92 -73 90 -23 0 -37 -2 -32 -4z"/>
<path d="M287 1683 c-4 -3 -7 -13 -7 -21 0 -12 3 -12 15 -2 8 7 15 16 15 21 0
11 -14 12 -23 2z"/>
<path d="M1472 1556 c-46 -33 -53 -43 -14 -20 19 10 38 25 44 32 15 17 8 14
-30 -12z"/>
<path d="M670 1415 c-14 -8 -20 -14 -15 -14 6 0 21 6 35 14 14 8 21 14 15 14
-5 0 -21 -6 -35 -14z"/>
<path d="M86 1380 c-9 -17 -13 -30 -8 -30 9 0 35 50 29 56 -2 2 -11 -10 -21
-26z"/>
<path d="M1250 1242 c-102 -49 -249 -117 -327 -152 -78 -35 -141 -66 -139 -67
4 -4 250 102 389 166 48 23 125 59 172 81 l85 39 0 -63 0 -63 -152 -65 c-84
-36 -255 -107 -381 -158 -125 -51 -226 -95 -224 -97 5 -5 582 226 692 276 l85
40 0 63 c0 35 -4 69 -8 75 -6 9 -58 -12 -192 -75z"/>
<path d="M1515 1321 c29 -6 30 -8 33 -69 3 -60 2 -62 -22 -62 -14 0 -27 -4
-30 -8 -2 -4 11 -6 30 -4 l34 4 0 74 0 74 -37 -1 c-37 -1 -37 -2 -8 -8z"/>
<path d="M181 1064 c0 -11 3 -14 6 -6 3 7 2 16 -1 19 -3 4 -6 -2 -5 -13z"/>
<path d="M740 1010 c-8 -5 -10 -10 -5 -10 6 0 17 5 25 10 8 5 11 10 5 10 -5 0
-17 -5 -25 -10z"/>
<path d="M1550 1000 c0 -19 -9 -24 -36 -21 -14 2 -27 -27 -18 -40 3 -6 12 -5
22 3 15 12 16 11 3 -5 -8 -9 -11 -20 -7 -24 8 -8 47 27 41 38 -3 4 -1 10 4 13
5 3 11 -4 15 -17 3 -12 2 -23 -2 -25 -4 -1 -14 -7 -22 -13 -11 -8 -12 -12 -2
-16 20 -8 14 -20 -19 -33 -42 -18 -22 -36 24 -21 23 8 42 8 60 2 18 -7 28 -7
33 1 8 13 -14 28 -43 28 -31 0 -29 28 2 36 30 7 33 30 5 37 -20 5 -28 27 -10
27 6 0 10 -4 10 -10 0 -5 11 -10 25 -10 14 0 25 4 25 8 0 17 -25 32 -52 32
-18 0 -28 5 -28 15 0 8 -7 15 -15 15 -8 0 -15 -9 -15 -20z"/>
<path d="M1000 940 c-8 -5 -10 -10 -5 -10 6 0 17 5 25 10 8 5 11 10 5 10 -5 0
-17 -5 -25 -10z"/>
<path d="M950 920 c-8 -5 -10 -10 -5 -10 6 0 17 5 25 10 8 5 11 10 5 10 -5 0
-17 -5 -25 -10z"/>
<path d="M1543 791 c-26 -22 -30 -33 -8 -25 8 4 15 1 15 -5 0 -6 -11 -13 -25
-17 -37 -9 -31 -27 8 -19 30 6 31 5 13 -10 -11 -8 -26 -15 -33 -15 -7 0 -13
-7 -13 -15 0 -14 3 -14 29 0 34 17 49 5 25 -20 -15 -15 -15 -18 -1 -32 21 -22
37 -8 37 33 0 28 4 34 21 34 12 0 19 5 16 13 -2 6 -12 11 -21 11 -20 -2 -21
12 -1 20 25 9 17 26 -12 26 -24 1 -25 2 -10 11 9 5 17 14 17 19 0 16 -34 11
-57 -9z"/>
<path d="M1283 630 c0 -41 2 -58 4 -37 2 20 2 54 0 75 -2 20 -4 3 -4 -38z"/>
<path d="M1543 573 c-17 -36 -16 -43 5 -43 13 0 14 -2 3 -9 -9 -6 -12 -20 -9
-40 3 -20 1 -30 -6 -28 -6 2 -12 20 -14 40 -2 23 -8 37 -17 37 -21 0 -28 -19
-14 -36 9 -11 8 -18 -5 -32 -24 -27 -20 -32 22 -32 20 0 54 -4 75 -9 39 -9
107 3 107 18 0 5 -15 6 -32 2 -18 -4 -49 -4 -68 -1 -30 5 -32 6 -12 12 18 5
22 13 22 46 0 23 -5 43 -12 45 -7 3 -3 6 10 6 19 1 22 5 16 24 -9 30 -11 32
-27 19 -8 -7 -17 -8 -23 -2 -5 5 -14 -1 -21 -17z"/>
<path d="M1500 564 c0 -8 5 -12 10 -9 6 3 10 10 10 16 0 5 -4 9 -10 9 -5 0
-10 -7 -10 -16z"/>
<path d="M1373 535 c0 -22 2 -30 4 -17 2 12 2 30 0 40 -3 9 -5 -1 -4 -23z"/>
<path d="M1383 420 c0 -25 2 -35 4 -22 2 12 2 32 0 45 -2 12 -4 2 -4 -23z"/>
<path d="M230 331 c0 -5 11 -16 25 -25 14 -9 25 -23 25 -32 0 -13 39 -37 48
-29 8 7 -45 75 -66 85 -28 12 -32 12 -32 1z"/>
<path d="M680 246 c0 -6 67 -36 82 -36 17 0 -2 18 -24 23 -13 2 -31 8 -40 12
-10 4 -18 4 -18 1z"/>
<path d="M785 201 c-3 -6 -16 -11 -28 -11 -20 -1 -20 -2 -4 -11 24 -14 62 -8
62 10 0 18 -21 26 -30 12z"/>
<path d="M400 165 c0 -9 110 -75 196 -116 68 -33 102 -43 144 -45 30 -1 40 1
23 3 -18 2 -33 8 -33 12 0 4 -30 18 -67 31 -38 13 -83 34 -102 47 -19 13 -44
23 -56 23 -25 0 -49 22 -37 35 4 5 -1 5 -10 2 -10 -3 -20 -2 -23 3 -6 10 -35
14 -35 5z"/>
</g>
</svg>
